<svg width="64" height="208" viewBox="0 0 64 208" fill="none" xmlns="http://www.w3.org/2000/svg">
<path d="M59 8.125H54.75L53.7375 5.2875C53.6675 5.09334 53.5394 4.92551 53.3704 4.80693C53.2015 4.68835 53.0001 4.62482 52.7938 4.625H43.2063C42.7844 4.625 42.4062 4.89063 42.2656 5.2875L41.25 8.125H37C35.6187 8.125 34.5 9.24375 34.5 10.625V24.875C34.5 26.2562 35.6187 27.375 37 27.375H59C60.3813 27.375 61.5 26.2562 61.5 24.875V10.625C61.5 9.24375 60.3813 8.125 59 8.125ZM48 22.375C45.2375 22.375 43 20.1375 43 17.375C43 14.6125 45.2375 12.375 48 12.375C50.7625 12.375 53 14.6125 53 17.375C53 20.1375 50.7625 22.375 48 22.375ZM45 17.375C45 18.1706 45.3161 18.9337 45.8787 19.4963C46.4413 20.0589 47.2044 20.375 48 20.375C48.7956 20.375 49.5587 20.0589 50.1213 19.4963C50.6839 18.9337 51 18.1706 51 17.375C51 16.5793 50.6839 15.8163 50.1213 15.2537C49.5587 14.6911 48.7956 14.375 48 14.375C47.2044 14.375 46.4413 14.6911 45.8787 15.2537C45.3161 15.8163 45 16.5793 45 17.375Z" fill="black"/>
<path d="M25 188.125H20.75L19.7375 185.288C19.6675 185.093 19.5394 184.926 19.3704 184.807C19.2015 184.688 19.0001 184.625 18.7938 184.625H9.20625C8.78438 184.625 8.40625 184.891 8.26562 185.288L7.25 188.125H3C1.61875 188.125 0.5 189.244 0.5 190.625V204.875C0.5 206.256 1.61875 207.375 3 207.375H25C26.3813 207.375 27.5 206.256 27.5 204.875V190.625C27.5 189.244 26.3813 188.125 25 188.125ZM14 202.375C11.2375 202.375 9 200.137 9 197.375C9 194.612 11.2375 192.375 14 192.375C16.7625 192.375 19 194.612 19 197.375C19 200.137 16.7625 202.375 14 202.375ZM11 197.375C11 198.171 11.3161 198.934 11.8787 199.496C12.4413 200.059 13.2044 200.375 14 200.375C14.7956 200.375 15.5587 200.059 16.1213 199.496C16.6839 198.934 17 198.171 17 197.375C17 196.579 16.6839 195.816 16.1213 195.254C15.5587 194.691 14.7956 194.375 14 194.375C13.2044 194.375 12.4413 194.691 11.8787 195.254C11.3161 195.816 11 196.579 11 197.375Z" fill="black"/>
</svg>
