<svg width="29" height="22" viewBox="0 0 29 22" fill="none" xmlns="http://www.w3.org/2000/svg">
<path d="M14.4449 0.997559C7.57939 0.997559 0.713928 1.54582 0.713928 5.38363V15.8005C0.713928 16.8422 1.36615 17.7852 2.43029 18.476V20.7349C2.43029 21.3379 3.20266 21.8314 4.14666 21.8314H5.86302C6.80702 21.8314 7.57939 21.3379 7.57939 20.7349V19.6383H21.3103V20.7349C21.3103 21.3379 22.0827 21.8314 23.0267 21.8314H24.743C25.687 21.8314 26.4594 21.3379 26.4594 20.7349V18.476C27.5236 17.7852 28.1758 16.8422 28.1758 15.8005V5.38363C28.1758 1.54582 22.0312 0.997559 14.4449 0.997559ZM14.4449 3.19059C20.8126 3.19059 23.2498 3.69499 24.1766 4.28711H4.8847C5.91452 3.71692 8.40324 3.19059 14.4449 3.19059ZM24.743 15.2523C24.743 16.4584 23.1983 17.4453 21.3103 17.4453H7.57939C5.69139 17.4453 4.14666 16.4584 4.14666 15.2523V11.9627H24.743V15.2523ZM24.743 9.76969H4.14666V6.48014H24.743V9.76969Z" fill="black"/>
</svg>
