<svg width="40" height="22" viewBox="0 0 40 22" fill="none" xmlns="http://www.w3.org/2000/svg">
<path d="M30.1289 7.66228C27.9434 5.0967 24.962 2.92761 21.4168 1.3239C19.779 0.579246 17.912 0.133528 15.9788 0.0256615C14.0456 -0.0822046 12.105 0.151062 10.3264 0.705093C8.77069 1.23153 7.41697 2.02172 6.38217 3.00743C5.34736 3.99314 4.66256 5.14474 4.38691 6.36278C4.28833 6.77826 4.2144 7.17607 4.14046 7.56504C2.98675 7.69919 1.93703 8.12308 1.17863 8.76106C0.420243 9.39903 0.00253576 10.2096 6.10352e-05 11.048V16.467C6.10352e-05 16.936 0.259715 17.3857 0.721903 17.7172C1.18409 18.0488 1.81095 18.2351 2.46459 18.2351V11.048C2.46459 10.5791 2.72424 10.1294 3.18643 9.79786C3.64862 9.46629 4.27548 9.28002 4.92911 9.28002H28.0094C30.3843 9.28236 32.6611 9.96021 34.3404 11.165C36.0198 12.3697 36.9647 14.003 36.9679 15.7068V16.3521H34.5034C33.983 15.4417 33.0135 14.7006 31.78 14.2702C30.5464 13.8399 29.1352 13.7504 27.8156 14.0189C26.496 14.2874 25.3604 14.895 24.6254 15.7259C23.8905 16.5567 23.6077 17.5526 23.831 18.5235C24.0543 19.4944 24.7681 20.3723 25.8361 20.9897C26.9042 21.6071 28.2517 21.9209 29.6216 21.871C30.9915 21.8211 32.2878 21.4112 33.2632 20.7193C34.2387 20.0275 34.8249 19.1023 34.91 18.1201H36.9679C37.6216 18.1201 38.2484 17.9339 38.7106 17.6023C39.1728 17.2707 39.4324 16.821 39.4324 16.3521V15.7068C39.4275 13.799 38.4958 11.9522 36.7978 10.4839C35.0998 9.0157 32.7416 8.01792 30.1289 7.66228ZM11.0904 7.51199H6.07511C6.07511 7.23795 6.18602 6.95507 6.25995 6.62798C6.47285 5.65686 7.02845 4.74093 7.87393 3.96729C8.7194 3.19365 9.82665 2.588 11.0904 2.20792V7.51199ZM13.5549 7.51199V1.83663C15.8555 1.62231 18.1887 1.98455 20.1599 2.86208C22.8508 4.0645 25.1733 5.64644 26.9866 7.51199H13.5549ZM29.3279 20.2241C28.7186 20.2241 28.123 20.0945 27.6164 19.8516C27.1098 19.6088 26.7149 19.2636 26.4817 18.8598C26.2486 18.456 26.1876 18.0116 26.3064 17.5829C26.4253 17.1542 26.7187 16.7604 27.1495 16.4513C27.5804 16.1423 28.1293 15.9318 28.7269 15.8465C29.3245 15.7612 29.9439 15.805 30.5068 15.9723C31.0697 16.1395 31.5509 16.4228 31.8894 16.7862C32.2279 17.1497 32.4086 17.577 32.4086 18.0141C32.4086 18.6002 32.084 19.1623 31.5063 19.5768C30.9285 19.9913 30.1449 20.2241 29.3279 20.2241V20.2241Z" fill="black"/>
<path d="M14.9967 16.3521C14.4763 15.4417 13.5068 14.7006 12.2733 14.2702C11.0397 13.8399 9.62853 13.7504 8.30892 14.0189C6.98931 14.2874 5.85368 14.895 5.11874 15.7259C4.3838 16.5567 4.101 17.5526 4.3243 18.5235C4.54761 19.4944 5.26138 20.3723 6.32942 20.9897C7.39747 21.6071 8.745 21.9208 10.1149 21.871C11.4848 21.8211 12.7811 21.4111 13.7566 20.7193C14.732 20.0275 15.3182 19.1022 15.4034 18.1201H21.9344V17.8991C21.91 17.3776 21.993 16.8563 22.1808 16.3521H14.9967ZM9.85818 20.2241C9.24889 20.2241 8.65327 20.0945 8.14666 19.8516C7.64005 19.6088 7.2452 19.2636 7.01203 18.8598C6.77886 18.456 6.71785 18.0116 6.83672 17.5829C6.95559 17.1542 7.24899 16.7604 7.67983 16.4513C8.11067 16.1422 8.65959 15.9318 9.25718 15.8465C9.85477 15.7612 10.4742 15.805 11.0371 15.9722C11.6 16.1395 12.0812 16.4228 12.4197 16.7862C12.7582 17.1497 12.9388 17.5769 12.9388 18.014C12.9388 18.6002 12.6143 19.1623 12.0365 19.5768C11.4588 19.9912 10.6752 20.2241 9.85818 20.2241Z" fill="black"/>
</svg>
