<svg width="27" height="27" viewBox="0 0 27 27" fill="none" xmlns="http://www.w3.org/2000/svg">
<path d="M13.5 1.5C11.1266 1.5 8.80655 2.20379 6.83316 3.52236C4.85977 4.84094 3.3217 6.71509 2.41345 8.9078C1.5052 11.1005 1.26756 13.5133 1.73058 15.8411C2.1936 18.1689 3.33649 20.3071 5.01472 21.9853C6.69295 23.6635 8.83115 24.8064 11.1589 25.2694C13.4867 25.7324 15.8995 25.4948 18.0922 24.5866C20.2849 23.6783 22.1591 22.1402 23.4776 20.1668C24.7962 18.1935 25.5 15.8734 25.5 13.5C25.5 10.3174 24.2357 7.26516 21.9853 5.01472C19.7349 2.76428 16.6826 1.5 13.5 1.5ZM13.5 24C11.4233 24 9.39323 23.3842 7.66652 22.2304C5.9398 21.0767 4.59399 19.4368 3.79927 17.5182C3.00455 15.5996 2.79662 13.4884 3.20176 11.4516C3.6069 9.41475 4.60693 7.54383 6.07538 6.07538C7.54384 4.60693 9.41476 3.6069 11.4516 3.20175C13.4884 2.79661 15.5996 3.00454 17.5182 3.79926C19.4368 4.59399 21.0767 5.9398 22.2304 7.66651C23.3842 9.39323 24 11.4233 24 13.5C24 16.2848 22.8938 18.9555 20.9246 20.9246C18.9555 22.8938 16.2848 24 13.5 24Z" fill="black"/>
<path d="M13.7175 6.68996C12.9048 6.67653 12.099 6.84227 11.3576 7.1754C10.6161 7.50854 9.95717 8.00089 9.4275 8.61747C9.35391 8.68566 9.29476 8.76793 9.25353 8.85939C9.21231 8.95086 9.18985 9.04967 9.1875 9.14997C9.18745 9.2425 9.20602 9.3341 9.24209 9.41932C9.27816 9.50454 9.33101 9.58162 9.39749 9.646C9.46396 9.71038 9.5427 9.76072 9.62903 9.79404C9.71536 9.82737 9.80751 9.84298 9.9 9.83997C10.0981 9.83505 10.2876 9.75767 10.4325 9.62247C10.8333 9.15273 11.3312 8.7754 11.8918 8.51646C12.4524 8.25752 13.0625 8.1231 13.68 8.12247C15.45 8.12247 16.5525 9.26247 16.5525 10.68V10.7175C16.5525 12.375 15.2325 13.2975 13.1475 13.455C13.0631 13.4582 12.9803 13.4793 12.9046 13.5167C12.8288 13.5542 12.7619 13.6073 12.7081 13.6724C12.6543 13.7375 12.6148 13.8133 12.5923 13.8947C12.5698 13.9762 12.5648 14.0614 12.5775 14.145V16.2075C12.5962 16.3931 12.6833 16.5651 12.822 16.6899C12.9607 16.8148 13.1409 16.8834 13.3275 16.8825H13.41C13.5956 16.8638 13.7677 16.7766 13.8925 16.6379C14.0173 16.4993 14.0859 16.319 14.085 16.1325V14.5875C16.335 14.2725 18.1575 13.0875 18.1575 10.6275V10.59C18.135 8.33997 16.38 6.68996 13.7175 6.68996Z" fill="black"/>
<path d="M13.335 20.5874C13.8527 20.5874 14.2725 20.1677 14.2725 19.6499C14.2725 19.1321 13.8527 18.7124 13.335 18.7124C12.8172 18.7124 12.3975 19.1321 12.3975 19.6499C12.3975 20.1677 12.8172 20.5874 13.335 20.5874Z" fill="black"/>
</svg>
