<svg width="32" height="24" viewBox="0 0 32 24" fill="none" xmlns="http://www.w3.org/2000/svg">
<path d="M27.1634 10.5171C27.0671 10.487 26.9626 10.4958 26.8729 10.5415C26.7831 10.5872 26.7155 10.6661 26.6849 10.7609C26.6543 10.8557 26.6632 10.9585 26.7096 11.0469C26.7561 11.1352 26.8362 11.2018 26.9325 11.2319C29.91 12.1656 31.238 13.5584 31.238 15.7499C31.238 17.6991 29.4316 19.2119 28.3558 19.9409C28.3048 19.9753 28.2631 20.0215 28.2343 20.0753C28.2055 20.1291 28.1904 20.189 28.1904 20.2499V23.1171C27.2756 22.7756 26.4584 22.221 25.8087 21.5009C25.7646 21.4526 25.7087 21.4163 25.6463 21.3954C25.5838 21.3745 25.517 21.3698 25.4521 21.3816C25.235 21.4229 25.0133 21.4814 24.7885 21.5406C24.3999 21.6434 23.9992 21.7499 23.619 21.7499C21.6624 21.7499 20.2925 21.3359 18.8921 20.3226C18.8107 20.2637 18.7088 20.2389 18.6089 20.2539C18.5089 20.2689 18.4191 20.3224 18.3592 20.4025C18.2993 20.4827 18.2742 20.583 18.2894 20.6814C18.3046 20.7798 18.3589 20.8682 18.4403 20.9271C19.9847 22.0446 21.4849 22.4999 23.619 22.4999C24.0998 22.4999 24.5508 22.3806 24.9866 22.2651C25.1222 22.2284 25.2571 22.1924 25.3904 22.1616C26.8144 23.6421 28.4251 23.9789 28.4952 23.9924C28.5505 24.0037 28.6077 24.0027 28.6626 23.9893C28.7175 23.9759 28.7686 23.9506 28.8121 23.9151C28.856 23.8801 28.8913 23.8358 28.9156 23.7856C28.9398 23.7354 28.9524 23.6805 28.9523 23.6249V20.4456C30.9196 19.0649 31.9999 17.4029 31.9999 15.7499C31.9999 13.2141 30.4632 11.5514 27.1634 10.5171Z" fill="black"/>
<path d="M25.1429 10.125C25.1429 4.353 19.7958 0 12.7063 0C5.58095 0 0 4.44825 0 10.1265C0 13.5308 2.44648 15.9697 4.57143 17.4457V22.4227C4.57182 22.4852 4.588 22.5466 4.61851 22.6014C4.64901 22.6562 4.69289 22.7026 4.74617 22.7365C4.79946 22.7705 4.86049 22.7908 4.92375 22.7957C4.98702 22.8007 5.05053 22.79 5.10857 22.7648C5.21981 22.716 7.82019 21.5527 10.045 19.158C11.0088 19.3343 12.099 19.5037 13.088 19.5037C20.2979 19.5037 25.1429 15.7343 25.1429 10.125ZM13.0872 18.7537C12.0891 18.7537 10.9547 18.5655 9.97638 18.3818C9.91155 18.37 9.84475 18.3748 9.78233 18.3957C9.71992 18.4166 9.66397 18.4528 9.61981 18.501C8.0579 20.235 6.22248 21.3368 5.33333 21.8115V17.25C5.33331 17.1892 5.31824 17.1292 5.28944 17.0754C5.26063 17.0216 5.21896 16.9754 5.168 16.941C3.1581 15.5797 0.761905 13.2937 0.761905 10.1265C0.761905 4.86825 6.00838 0.75 12.7063 0.75C19.3623 0.75 24.381 4.7805 24.381 10.125C24.381 15.2865 19.8423 18.7537 13.0872 18.7537Z" fill="black"/>
<path d="M12.5714 8.625C11.731 8.625 11.0476 9.29775 11.0476 10.125C11.0476 10.9523 11.731 11.625 12.5714 11.625C13.4118 11.625 14.0952 10.9523 14.0952 10.125C14.0952 9.29775 13.4118 8.625 12.5714 8.625ZM12.5714 10.875C12.3752 10.8664 12.19 10.7836 12.0543 10.6439C11.9186 10.5042 11.8428 10.3183 11.8428 10.125C11.8428 9.9317 11.9186 9.74584 12.0543 9.60614C12.19 9.46643 12.3752 9.38364 12.5714 9.375C12.7676 9.38364 12.9528 9.46643 13.0885 9.60614C13.2243 9.74584 13.3 9.9317 13.3 10.125C13.3 10.3183 13.2243 10.5042 13.0885 10.6439C12.9528 10.7836 12.7676 10.8664 12.5714 10.875Z" fill="black"/>
<path d="M17.9048 8.625C17.0644 8.625 16.381 9.29775 16.381 10.125C16.381 10.9523 17.0644 11.625 17.9048 11.625C18.7452 11.625 19.4286 10.9523 19.4286 10.125C19.4286 9.29775 18.7452 8.625 17.9048 8.625ZM17.9048 10.875C17.7086 10.8664 17.5234 10.7836 17.3877 10.6439C17.252 10.5042 17.1762 10.3183 17.1762 10.125C17.1762 9.9317 17.252 9.74584 17.3877 9.60614C17.5234 9.46643 17.7086 9.38364 17.9048 9.375C18.101 9.38364 18.2862 9.46643 18.4219 9.60614C18.5576 9.74584 18.6334 9.9317 18.6334 10.125C18.6334 10.3183 18.5576 10.5042 18.4219 10.6439C18.2862 10.7836 18.101 10.8664 17.9048 10.875Z" fill="black"/>
<path d="M7.23804 8.69629C6.39766 8.69629 5.71423 9.36904 5.71423 10.1963C5.71423 11.0235 6.39766 11.6963 7.23804 11.6963C8.07842 11.6963 8.76185 11.0235 8.76185 10.1963C8.76185 9.36904 8.07842 8.69629 7.23804 8.69629ZM7.23804 10.9463C7.04187 10.9377 6.85664 10.8549 6.72092 10.7152C6.5852 10.5754 6.50946 10.3896 6.50946 10.1963C6.50946 10.003 6.5852 9.81713 6.72092 9.67743C6.85664 9.53772 7.04187 9.45493 7.23804 9.44629C7.43422 9.45493 7.61945 9.53772 7.75517 9.67743C7.89088 9.81713 7.96663 10.003 7.96663 10.1963C7.96663 10.3896 7.89088 10.5754 7.75517 10.7152C7.61945 10.8549 7.43422 10.9377 7.23804 10.9463Z" fill="black"/>
</svg>
