<svg width="61" height="48" viewBox="0 0 61 48" fill="none" xmlns="http://www.w3.org/2000/svg">
<path d="M28.7728 6.4519H34.0004C34.5606 6.4519 35.0978 6.64611 35.4939 6.99181C35.89 7.3375 36.1126 7.80636 36.1126 8.29525V38.7104C36.1126 39.1993 35.89 39.6682 35.4939 40.0139C35.0978 40.3596 34.5606 40.5538 34.0004 40.5538H4.4301C3.86992 40.5538 3.33268 40.3596 2.93657 40.0139C2.54046 39.6682 2.31793 39.1993 2.31793 38.7104V8.29525C2.31793 7.80636 2.54046 7.3375 2.93657 6.99181C3.33268 6.64611 3.86992 6.4519 4.4301 6.4519H11.8227V9.21692H26.6078V6.4519H28.7728Z" stroke="#9D9A98" stroke-width="4" stroke-linejoin="round"/>
<path d="M11.8227 3.68677H26.6079V9.2168H11.8227V3.68677Z" stroke="#9D9A98" stroke-width="4" stroke-linecap="round" stroke-linejoin="round"/>
<path d="M22.3835 17.512L13.9348 24.8863H24.4999L16.047 32.2596" stroke="#9D9A98" stroke-width="4" stroke-linecap="round" stroke-linejoin="round"/>
</svg>
