<svg width="55" height="55" viewBox="0 0 55 55" fill="none" xmlns="http://www.w3.org/2000/svg">
<path d="M27.4926 18.3294C22.443 18.3294 18.3222 22.4503 18.3222 27.5C18.3222 32.5497 22.443 36.6706 27.4926 36.6706C32.5422 36.6706 36.663 32.5497 36.663 27.5C36.663 22.4503 32.5422 18.3294 27.4926 18.3294ZM54.9969 27.5C54.9969 23.7024 55.0313 19.9393 54.8181 16.1486C54.6048 11.7456 53.6004 7.83797 50.3808 4.61829C47.1543 1.39173 43.2536 0.394186 38.8507 0.180917C35.0532 -0.032352 31.2901 0.00204631 27.4995 0.00204631C23.702 0.00204631 19.9389 -0.032352 16.1483 0.180917C11.7454 0.394186 7.83782 1.39861 4.6182 4.61829C1.39171 7.84485 0.394179 11.7456 0.180914 16.1486C-0.0323514 19.9461 0.00204627 23.7093 0.00204627 27.5C0.00204627 31.2907 -0.0323514 35.0607 0.180914 38.8514C0.394179 43.2544 1.39859 47.162 4.6182 50.3817C7.8447 53.6083 11.7454 54.6058 16.1483 54.8191C19.9458 55.0324 23.7089 54.998 27.4995 54.998C31.297 54.998 35.0601 55.0324 38.8507 54.8191C43.2536 54.6058 47.1612 53.6014 50.3808 50.3817C53.6073 47.1552 54.6048 43.2544 54.8181 38.8514C55.0382 35.0607 54.9969 31.2976 54.9969 27.5ZM27.4926 41.6102C19.6844 41.6102 13.3827 35.3084 13.3827 27.5C13.3827 19.6916 19.6844 13.3898 27.4926 13.3898C35.3009 13.3898 41.6025 19.6916 41.6025 27.5C41.6025 35.3084 35.3009 41.6102 27.4926 41.6102ZM42.1804 16.1073C40.3573 16.1073 38.8851 14.6351 38.8851 12.812C38.8851 10.9888 40.3573 9.5166 42.1804 9.5166C44.0035 9.5166 45.4757 10.9888 45.4757 12.812C45.4762 13.2449 45.3914 13.6736 45.2259 14.0737C45.0605 14.4737 44.8178 14.8372 44.5117 15.1433C44.2056 15.4494 43.8421 15.6922 43.4421 15.8576C43.042 16.023 42.6133 16.1078 42.1804 16.1073Z" fill="#EC72B4"/>
</svg>
