<svg width="35" height="21" viewBox="0 0 35 21" fill="none" xmlns="http://www.w3.org/2000/svg">
<path d="M33.4918 6.37091H31.3852L30.4884 1.63739C30.4174 1.28089 30.1807 0.955158 29.8207 0.718591C29.4607 0.482023 29.0011 0.350088 28.5241 0.346436H6.57481C6.09782 0.350088 5.63813 0.482023 5.27817 0.718591C4.91821 0.955158 4.6815 1.28089 4.61048 1.63739L3.71372 6.37091H1.60705C1.38054 6.37091 1.1633 6.43891 1.00314 6.55996C0.842971 6.68101 0.752991 6.84519 0.752991 7.01638C0.752991 7.18758 0.842971 7.35176 1.00314 7.47281C1.1633 7.59386 1.38054 7.66186 1.60705 7.66186H3.59985V19.0653C3.59985 19.4648 3.8098 19.8479 4.18352 20.1303C4.55725 20.4128 5.06412 20.5714 5.59265 20.5714H9.00887C9.5374 20.5714 10.0443 20.4128 10.418 20.1303C10.7917 19.8479 11.0017 19.4648 11.0017 19.0653V16.2682H24.0972V19.0653C24.0972 19.4648 24.3072 19.8479 24.6809 20.1303C25.0546 20.4128 25.5615 20.5714 26.09 20.5714H29.5062C30.0348 20.5714 30.5416 20.4128 30.9154 20.1303C31.2891 19.8479 31.499 19.4648 31.499 19.0653V7.66186H33.4918C33.7183 7.66186 33.9356 7.59386 34.0957 7.47281C34.2559 7.35176 34.3459 7.18758 34.3459 7.01638C34.3459 6.84519 34.2559 6.68101 34.0957 6.55996C33.9356 6.43891 33.7183 6.37091 33.4918 6.37091ZM6.30436 1.82028C6.31142 1.76988 6.343 1.72326 6.39297 1.68946C6.44295 1.65567 6.50775 1.63711 6.57481 1.63739H28.5241C28.5911 1.63711 28.6559 1.65567 28.7059 1.68946C28.7559 1.72326 28.7875 1.76988 28.7945 1.82028L29.6628 6.37091H5.43607L6.30436 1.82028ZM9.29356 19.0653C9.29356 19.1224 9.26357 19.1771 9.21018 19.2175C9.15679 19.2578 9.08438 19.2805 9.00887 19.2805H5.59265C5.51714 19.2805 5.44473 19.2578 5.39134 19.2175C5.33795 19.1771 5.30796 19.1224 5.30796 19.0653V16.2682H9.29356V19.0653ZM29.5062 19.2805H26.09C26.0145 19.2805 25.9421 19.2578 25.8887 19.2175C25.8353 19.1771 25.8053 19.1224 25.8053 19.0653V16.2682H29.7909V19.0653C29.7909 19.1224 29.7609 19.1771 29.7075 19.2175C29.6541 19.2578 29.5817 19.2805 29.5062 19.2805ZM29.7909 14.9773H20.681V10.4589C20.681 10.2877 20.591 10.1236 20.4308 10.0025C20.2707 9.88147 20.0534 9.81346 19.8269 9.81346C19.6004 9.81346 19.3832 9.88147 19.223 10.0025C19.0628 10.1236 18.9729 10.2877 18.9729 10.4589V14.9773H16.126V10.4589C16.126 10.2877 16.036 10.1236 15.8759 10.0025C15.7157 9.88147 15.4985 9.81346 15.272 9.81346C15.0454 9.81346 14.8282 9.88147 14.668 10.0025C14.5079 10.1236 14.4179 10.2877 14.4179 10.4589V14.9773H5.30796V7.66186H29.7909V14.9773ZM8.15482 10.8893C8.15482 10.6765 8.2383 10.4685 8.39471 10.2916C8.55112 10.1147 8.77342 9.97678 9.03352 9.89535C9.29362 9.81393 9.57982 9.79262 9.85594 9.83413C10.1321 9.87564 10.3857 9.9781 10.5848 10.1286C10.7838 10.279 10.9194 10.4707 10.9743 10.6794C11.0292 10.8881 11.0011 11.1044 10.8933 11.3009C10.7856 11.4975 10.6031 11.6655 10.3691 11.7838C10.135 11.902 9.85977 11.9651 9.57824 11.9651C9.20073 11.9651 8.83867 11.8517 8.57173 11.65C8.30478 11.4482 8.15482 11.1746 8.15482 10.8893ZM24.0972 10.8893C24.0972 10.6765 24.1807 10.4685 24.3371 10.2916C24.4935 10.1147 24.7158 9.97678 24.9759 9.89535C25.236 9.81393 25.5222 9.79262 25.7983 9.83413C26.0744 9.87564 26.3281 9.9781 26.5272 10.1286C26.7262 10.279 26.8618 10.4707 26.9167 10.6794C26.9716 10.8881 26.9434 11.1044 26.8357 11.3009C26.728 11.4975 26.5455 11.6655 26.3115 11.7838C26.0774 11.902 25.8022 11.9651 25.5206 11.9651C25.1431 11.9651 24.7811 11.8517 24.5141 11.65C24.2472 11.4482 24.0972 11.1746 24.0972 10.8893Z" fill="black"/>
</svg>
