<svg width="35" height="35" viewBox="0 0 35 35" fill="none" xmlns="http://www.w3.org/2000/svg">
<path d="M34 1L32.1666 2.73684" stroke="black" stroke-width="1.5" stroke-linecap="round" stroke-linejoin="round"/>
<path d="M1 1L2.83333 2.73684" stroke="black" stroke-width="1.5" stroke-linecap="round" stroke-linejoin="round"/>
<path d="M34.0001 25.3157L32.1667 23.5789" stroke="black" stroke-width="1.5" stroke-linecap="round" stroke-linejoin="round"/>
<path d="M1 25.3157L2.83333 23.5789" stroke="black" stroke-width="1.5" stroke-linecap="round" stroke-linejoin="round"/>
<path d="M12 28.7896H23" stroke="black" stroke-width="1.5" stroke-linecap="round" stroke-linejoin="round"/>
<path d="M13.8333 34H21.1666" stroke="black" stroke-width="1.5" stroke-linecap="round" stroke-linejoin="round"/>
<path d="M17.5 2.73682C10.1667 2.73682 6.41205 6.12366 6.50005 11.421C6.54221 14.0037 7.41671 15.7631 9.25005 17.5C11.0834 19.2368 12 20.1052 12 23.5789H23C23 20.1052 23.9167 19.2368 25.75 17.5C27.5834 15.7631 28.4579 14.0037 28.5 11.421C28.588 6.12366 24.8334 2.73682 17.5 2.73682Z" stroke="black" stroke-width="1.5" stroke-linecap="round" stroke-linejoin="round"/>
</svg>
