<svg width="56" height="56" viewBox="0 0 56 56" fill="none" xmlns="http://www.w3.org/2000/svg">
<path d="M44.3333 35V44.3333H11.6667V35H44.3333ZM46.6667 30.3333H9.33333C8.71449 30.3333 8.121 30.5792 7.68342 31.0168C7.24583 31.4543 7 32.0478 7 32.6667V46.6667C7 47.2855 7.24583 47.879 7.68342 48.3166C8.121 48.7542 8.71449 49 9.33333 49H46.6667C47.2855 49 47.879 48.7542 48.3166 48.3166C48.7542 47.879 49 47.2855 49 46.6667V32.6667C49 32.0478 48.7542 31.4543 48.3166 31.0168C47.879 30.5792 47.2855 30.3333 46.6667 30.3333ZM16.3333 43.1667C15.4051 43.1667 14.5148 42.7979 13.8585 42.1415C13.2021 41.4852 12.8333 40.5949 12.8333 39.6667C12.8333 38.7384 13.2021 37.8482 13.8585 37.1918C14.5148 36.5354 15.4051 36.1667 16.3333 36.1667C17.2616 36.1667 18.1518 36.5354 18.8082 37.1918C19.4646 37.8482 19.8333 38.7384 19.8333 39.6667C19.8333 40.5949 19.4646 41.4852 18.8082 42.1415C18.1518 42.7979 17.2616 43.1667 16.3333 43.1667ZM44.3333 11.6667V21H11.6667V11.6667H44.3333ZM46.6667 7H9.33333C8.71449 7 8.121 7.24583 7.68342 7.68342C7.24583 8.121 7 8.71449 7 9.33333V23.3333C7 23.9522 7.24583 24.5457 7.68342 24.9832C8.121 25.4208 8.71449 25.6667 9.33333 25.6667H46.6667C47.2855 25.6667 47.879 25.4208 48.3166 24.9832C48.7542 24.5457 49 23.9522 49 23.3333V9.33333C49 8.71449 48.7542 8.121 48.3166 7.68342C47.879 7.24583 47.2855 7 46.6667 7ZM16.3333 19.8333C15.4051 19.8333 14.5148 19.4646 13.8585 18.8082C13.2021 18.1518 12.8333 17.2616 12.8333 16.3333C12.8333 15.4051 13.2021 14.5148 13.8585 13.8585C14.5148 13.2021 15.4051 12.8333 16.3333 12.8333C17.2616 12.8333 18.1518 13.2021 18.8082 13.8585C19.4646 14.5148 19.8333 15.4051 19.8333 16.3333C19.8333 17.2616 19.4646 18.1518 18.8082 18.8082C18.1518 19.4646 17.2616 19.8333 16.3333 19.8333Z" fill="black"/>
</svg>
