<svg width="39" height="35" viewBox="0 0 39 35" fill="none" xmlns="http://www.w3.org/2000/svg">
<path d="M38.1517 21.1041C37.3517 24.661 35.363 27.9057 32.4582 30.3934C29.5534 32.8811 25.8746 34.4901 21.926 35V31.439C24.8424 30.9655 27.5481 29.7397 29.7218 27.9074C31.8954 26.0751 33.4456 23.7132 34.188 21.1023L38.1517 21.1041ZM4.25539 21.1041C4.98983 23.6848 6.51361 26.0227 8.64966 27.8462C10.7857 29.6698 13.4463 30.904 16.3223 31.4056V34.9754C12.4125 34.433 8.77943 32.8123 5.91297 30.3316C3.04651 27.851 1.08455 24.6297 0.291677 21.1023H4.25539V21.1041ZM30.8115 15.8268V19.3438H28.8799C26.8976 19.3438 24.9911 20.0374 23.5547 21.2812C22.1184 22.525 21.2621 24.2238 21.163 26.0262L21.1533 26.3779V28.1365H17.2901V26.3779C17.2901 24.5733 16.5282 22.8376 15.1619 21.53C13.7957 20.2224 11.9297 19.4428 9.94986 19.3526L9.56353 19.3438H7.63189V15.8268H30.8115ZM19.2217 0C29.2372 0 37.4737 6.94091 38.4415 15.8268H34.555C34.0837 12.4273 32.2659 9.30134 29.4428 7.0353C26.6197 4.76927 22.9854 3.51895 19.2217 3.51895C15.458 3.51895 11.8237 4.76927 9.0006 7.0353C6.17753 9.30134 4.35976 12.4273 3.88838 15.8268H0C0.969681 6.94091 9.20618 0 19.2217 0Z" fill="black"/>
</svg>
