<svg width="27" height="27" viewBox="0 0 27 27" fill="none" xmlns="http://www.w3.org/2000/svg">
<path d="M1 7.27275C1 6.81002 1.09116 6.35182 1.26828 5.92433C1.44541 5.49685 1.70501 5.10844 2.03228 4.7813C2.35954 4.45417 2.74805 4.19471 3.1756 4.01776C3.60316 3.84081 4.0614 3.74982 4.52413 3.75H6.5V1H13.375V3.75H16.1277C18.6797 3.75 21.1272 4.76377 22.9317 6.56829C24.7362 8.37281 25.75 10.8203 25.75 13.3723V22.23C25.75 22.6927 25.6588 23.1509 25.4817 23.5784C25.3046 24.0059 25.045 24.3943 24.7177 24.7214C24.3905 25.0486 24.002 25.308 23.5744 25.485C23.1468 25.6619 22.6886 25.7529 22.2259 25.7528H4.52413C3.58993 25.752 2.69419 25.3807 2.03348 24.7202C1.37278 24.0598 1.00109 23.1642 1 22.23V7.27275Z" stroke="black" stroke-width="1.493" stroke-miterlimit="1.5" stroke-linecap="round" stroke-linejoin="round"/>
<path d="M13.375 9.25C13.375 9.25 17.5 13.3654 17.5 15.9682C17.5 18.2452 15.6506 20.0932 13.375 20.0932C11.098 20.0932 9.2665 18.2452 9.25 15.9682C9.26375 13.364 13.375 9.25 13.375 9.25Z" stroke="black" stroke-width="1.5" stroke-miterlimit="1.5" stroke-linecap="round" stroke-linejoin="round"/>
</svg>
