<svg width="31" height="21" viewBox="0 0 31 21" fill="none" xmlns="http://www.w3.org/2000/svg">
<path d="M30.5408 10.3663L27.2731 4.07409C27.1897 3.91162 27.0502 3.77299 26.872 3.67549C26.6939 3.57798 26.4848 3.52591 26.271 3.52577H23.0033V1.72799C23.0033 1.48959 22.8886 1.26095 22.6843 1.09238C22.48 0.923806 22.203 0.829102 21.9141 0.829102H1.21869C0.929805 0.829102 0.652755 0.923806 0.448484 1.09238C0.244214 1.26095 0.129456 1.48959 0.129456 1.72799V17.0091C0.129456 17.2475 0.244214 17.4761 0.448484 17.6447C0.652755 17.8133 0.929805 17.908 1.21869 17.908H3.54964C3.80047 18.6697 4.34805 19.3421 5.10789 19.8215C5.86774 20.3009 6.79762 20.5606 7.75408 20.5606C8.71054 20.5606 9.64042 20.3009 10.4003 19.8215C11.1601 19.3421 11.7077 18.6697 11.9585 17.908H18.7989C19.0497 18.6697 19.5973 19.3421 20.3571 19.8215C21.117 20.3009 22.0469 20.5606 23.0033 20.5606C23.9598 20.5606 24.8897 20.3009 25.6495 19.8215C26.4093 19.3421 26.9569 18.6697 27.2078 17.908H29.5387C29.8276 17.908 30.1046 17.8133 30.3089 17.6447C30.5132 17.4761 30.6279 17.2475 30.6279 17.0091V10.7169C30.6277 10.5964 30.598 10.4772 30.5408 10.3663ZM23.0033 5.32354H25.5521L27.8831 9.81799H23.0033V5.32354ZM7.75408 18.8069C7.32322 18.8069 6.90203 18.7014 6.54379 18.5039C6.18554 18.3064 5.90632 18.0256 5.74144 17.6971C5.57656 17.3686 5.53342 17.0071 5.61747 16.6584C5.70153 16.3096 5.90901 15.9893 6.21367 15.7379C6.51833 15.4865 6.9065 15.3152 7.32908 15.2459C7.75166 15.1765 8.18968 15.2121 8.58774 15.3482C8.9858 15.4842 9.32603 15.7147 9.5654 16.0103C9.80478 16.3059 9.93254 16.6535 9.93254 17.0091C9.93254 17.4859 9.70302 17.9432 9.29448 18.2803C8.88594 18.6175 8.33184 18.8069 7.75408 18.8069ZM18.7989 16.1102H11.9585C11.7077 15.3485 11.1601 14.6761 10.4003 14.1967C9.64042 13.7173 8.71054 13.4576 7.75408 13.4576C6.79762 13.4576 5.86774 13.7173 5.10789 14.1967C4.34805 14.6761 3.80047 15.3485 3.54964 16.1102H2.30792V2.62688H20.8249V13.9169C20.3289 14.1545 19.8946 14.4705 19.5469 14.8469C19.1993 15.2233 18.9451 15.6526 18.7989 16.1102ZM23.0033 18.8069C22.5725 18.8069 22.1513 18.7014 21.793 18.5039C21.4348 18.3064 21.1556 18.0256 20.9907 17.6971C20.8258 17.3686 20.7827 17.0071 20.8667 16.6584C20.9508 16.3096 21.1583 15.9893 21.4629 15.7379C21.7676 15.4865 22.1557 15.3152 22.5783 15.2459C23.0009 15.1765 23.4389 15.2121 23.837 15.3482C24.235 15.4842 24.5753 15.7147 24.8146 16.0103C25.054 16.3059 25.1818 16.6535 25.1818 17.0091C25.1818 17.4859 24.9523 17.9432 24.5437 18.2803C24.1352 18.6175 23.5811 18.8069 23.0033 18.8069ZM28.4495 16.1102H27.2078C26.9669 15.3403 26.4236 14.6581 25.6628 14.1701C24.9021 13.6822 23.9668 13.4161 23.0033 13.4135V11.6158H28.4495V16.1102Z" fill="black"/>
</svg>
