<svg width="55" height="55" viewBox="0 0 55 55" fill="none" xmlns="http://www.w3.org/2000/svg">
<path d="M27.5 49.5C33.3348 49.5 38.9305 47.1822 43.0564 43.0564C47.1822 38.9305 49.5 33.3348 49.5 27.5C49.5 21.6652 47.1822 16.0695 43.0564 11.9437C38.9305 7.81785 33.3348 5.5 27.5 5.5C21.6652 5.5 16.0695 7.81785 11.9437 11.9437C7.81785 16.0695 5.5 21.6652 5.5 27.5C5.5 33.3348 7.81785 38.9305 11.9437 43.0564C16.0695 47.1822 21.6652 49.5 27.5 49.5ZM27.5 55C12.3118 55 0 42.6882 0 27.5C0 12.3118 12.3118 0 27.5 0C42.6882 0 55 12.3118 55 27.5C55 42.6882 42.6882 55 27.5 55Z" fill="#4CB9F7"/>
<path d="M41.2498 19.1043C40.2378 19.5443 39.1515 19.8468 38.0103 19.9788C39.1763 19.2913 40.0673 18.2023 40.4908 16.907C39.3797 17.5546 38.1673 18.0101 36.9048 18.2545C36.3737 17.6979 35.7347 17.2552 35.027 16.9536C34.3192 16.6519 33.5574 16.4976 32.788 16.5C29.6723 16.5 27.1478 18.9888 27.1478 22.055C27.1478 22.4895 27.1973 22.913 27.2935 23.32C25.0587 23.2139 22.8705 22.6431 20.8685 21.644C18.8666 20.645 17.0949 19.2396 15.6665 17.5175C15.1648 18.3621 14.9007 19.3265 14.902 20.3088C14.902 22.2338 15.9003 23.9388 17.4128 24.9315C16.5175 24.9035 15.6414 24.6651 14.8553 24.2358V24.3045C14.8638 25.5955 15.3195 26.8437 16.1448 27.8365C16.9701 28.8293 18.114 29.5053 19.3818 29.7495C18.5495 29.9696 17.6787 30.0015 16.8325 29.843C17.2014 30.9537 17.9069 31.9219 18.8511 32.6133C19.7953 33.3047 20.9313 33.685 22.1015 33.7013C20.0939 35.2483 17.629 36.0841 15.0945 36.0773C14.6408 36.0773 14.1925 36.0498 13.7498 36.0003C16.3361 37.6373 19.3349 38.5044 22.3958 38.5C32.7743 38.5 38.4475 30.0355 38.4475 22.693L38.4283 21.9725C39.5346 21.195 40.4906 20.2232 41.2498 19.1043Z" fill="#4CB9F7"/>
</svg>
