<?xml version="1.0" standalone="no"?>
<!DOCTYPE svg PUBLIC "-//W3C//DTD SVG 20010904//EN"
 "http://www.w3.org/TR/2001/REC-SVG-20010904/DTD/svg10.dtd">
<svg version="1.0" xmlns="http://www.w3.org/2000/svg"
 width="1280.000000pt" height="996.000000pt" viewBox="0 0 1280.000000 996.000000"
 preserveAspectRatio="xMidYMid meet">
<metadata>
Created by potrace 1.15, written by Peter Selinger 2001-2017
</metadata>
<g transform="translate(0.000000,996.000000) scale(0.100000,-0.100000)"
fill="#000000" stroke="none">
<path d="M6453 9944 c-51 -8 -109 -20 -128 -27 -22 -8 -230 -190 -588 -517
-305 -278 -554 -506 -553 -507 1 -2 56 11 122 28 153 40 351 50 486 25 222
-42 444 -146 692 -326 53 -38 99 -70 102 -70 5 0 407 363 483 436 l34 33 -27
41 c-42 64 -93 116 -147 151 l-50 32 -47 -40 c-26 -22 -118 -122 -206 -222
l-158 -182 -31 18 c-48 29 -71 66 -63 105 11 58 67 139 131 188 77 59 95 96
102 207 l6 89 -61 32 c-75 40 -171 62 -274 62 -43 0 -78 2 -78 5 0 3 50 68
112 146 73 91 121 142 137 146 38 9 204 -13 499 -67 376 -68 482 -82 482 -61
0 13 -169 125 -252 167 -215 108 -473 147 -725 108z"/>
<path d="M6891 9531 c-12 -12 -21 -30 -19 -39 2 -8 53 -53 113 -99 278 -212
590 -494 655 -591 33 -50 29 -66 -20 -77 -40 -9 -102 21 -175 85 -73 63 -101
78 -117 62 -9 -9 13 -59 85 -204 101 -202 144 -317 173 -457 21 -108 16 -242
-11 -294 -32 -59 -520 -563 -569 -587 -51 -24 -127 -26 -206 -5 -30 8 -55 13
-56 12 -1 -1 2 -22 6 -47 5 -25 9 -71 10 -102 0 -67 -6 -72 -92 -82 l-56 -6
-7 115 -7 114 -74 41 c-40 22 -84 40 -97 40 -32 0 -75 -49 -133 -154 -51 -92
-75 -113 -117 -102 -26 6 -70 64 -61 78 3 5 30 26 60 49 51 38 68 69 44 84 -6
4 7 31 30 65 l41 60 -27 22 c-14 13 -27 23 -29 23 -2 0 -78 -85 -168 -190
l-165 -190 52 -16 c111 -34 156 -70 236 -188 31 -47 67 -94 78 -105 l21 -18
-52 -43 -52 -43 -45 42 c-78 75 -203 146 -323 185 -36 12 -39 11 -90 -25 -72
-53 -173 -150 -209 -201 -16 -24 -51 -108 -78 -188 -99 -290 -160 -383 -592
-905 -201 -243 -320 -395 -411 -523 -225 -317 -366 -610 -429 -889 -20 -89
-23 -129 -22 -293 0 -163 4 -209 27 -325 23 -117 61 -268 82 -322 5 -13 -11
-25 -77 -58 -232 -116 -659 -451 -866 -681 l-59 -66 4 -54 c3 -30 8 -78 12
-107 l6 -53 230 222 c240 232 359 338 511 457 149 116 200 136 472 181 l169
28 70 74 c38 41 118 126 177 190 l108 117 88 16 c49 9 117 19 152 22 l63 6
-47 -34 c-116 -84 -293 -267 -275 -284 3 -3 51 -1 107 5 55 6 156 11 223 12
l122 0 83 105 c57 72 89 104 103 104 68 0 262 -72 491 -182 134 -64 150 -70
165 -56 10 8 39 27 66 42 26 15 47 30 47 35 0 11 -277 143 -390 186 -99 38
-344 105 -384 105 -12 0 -31 6 -41 14 -19 13 -18 15 15 29 19 9 102 37 183 62
81 26 147 51 145 57 -2 5 -32 26 -67 46 -73 42 -92 65 -73 84 10 10 52 13 155
12 193 -2 316 -35 519 -142 4 -2 26 34 49 80 60 118 111 190 209 293 48 50
106 118 128 152 39 58 87 103 122 115 8 3 37 2 63 -2 40 -6 52 -4 73 12 13 11
24 28 24 39 0 56 -284 118 -547 119 l-123 0 26 53 26 52 86 -3 c171 -5 302
-22 420 -57 64 -18 124 -36 134 -40 14 -6 17 6 23 90 4 53 5 99 2 102 -4 3
-51 5 -105 4 -132 -3 -137 2 -129 136 6 114 29 195 96 338 48 102 255 454 275
468 18 12 52 -1 118 -43 127 -82 236 -90 337 -25 31 21 109 91 174 158 64 66
117 115 117 109 0 -24 -101 -276 -146 -362 -65 -128 -134 -198 -304 -312 -76
-51 -146 -106 -155 -121 -11 -19 -22 -77 -31 -170 -27 -271 -45 -427 -51 -444
-10 -27 51 20 129 99 156 158 288 412 544 1044 197 488 236 594 229 628 -12
57 -85 194 -146 276 -64 84 -148 160 -178 160 -19 0 -81 -59 -81 -77 0 -7 39
-47 86 -90 47 -43 94 -93 105 -110 24 -38 22 -81 -4 -97 -16 -9 -32 4 -120 95
-119 124 -146 144 -183 135 -34 -9 -143 -112 -201 -190 -24 -32 -61 -96 -82
-141 -73 -156 -173 -293 -506 -695 -116 -140 -238 -289 -271 -330 -180 -224
-309 -420 -340 -520 l-19 -58 -55 -7 c-82 -10 -217 -52 -284 -88 -52 -28 -103
-79 -372 -374 l-311 -343 -139 -69 c-77 -39 -150 -71 -164 -73 l-25 -3 2 110
c5 303 149 680 448 1180 41 69 75 127 75 130 0 11 -53 4 -152 -20 -110 -27
-153 -31 -163 -16 -15 25 123 391 216 572 120 232 233 335 346 315 29 -6 52
-22 98 -70 33 -35 71 -69 85 -76 22 -12 27 -10 58 26 136 156 262 337 311 446
16 35 36 96 46 137 14 59 27 84 65 130 53 64 138 143 181 168 16 10 29 21 29
24 0 4 -23 44 -52 89 -41 64 -49 83 -38 90 31 19 189 33 319 27 l133 -6 54 34
c150 96 227 114 390 90 229 -34 400 -106 697 -294 99 -62 180 -111 180 -109 1
2 123 126 271 275 l268 270 -71 60 c-118 100 -110 99 -190 11 -62 -67 -73 -74
-100 -70 -34 5 -154 -29 -187 -52 -15 -10 -25 -35 -33 -77 -16 -79 -54 -120
-132 -143 -65 -20 -67 -18 -100 83 -32 94 -30 164 6 230 27 50 165 191 187
191 5 0 34 -23 64 -52 30 -28 56 -49 58 -47 2 2 13 47 25 99 24 110 29 100
-79 155 -79 40 -153 62 -242 72 l-66 8 60 64 60 64 77 -18 c104 -24 216 -64
362 -130 67 -30 130 -55 139 -55 10 0 39 23 65 51 46 50 48 52 29 66 -58 44
-296 148 -464 204 -48 16 -84 33 -82 40 1 6 22 33 45 60 39 46 45 49 88 49
124 0 427 -114 630 -236 31 -19 66 -34 78 -34 28 0 120 70 120 92 2 44 -202
170 -362 223 -189 63 -447 95 -613 76 -141 -15 -166 -25 -241 -91 l-68 -59
-13 56 c-7 31 -10 64 -7 74 3 10 46 43 95 74 109 69 174 138 195 208 20 67 19
115 -5 235 -40 198 -95 360 -178 522 -45 86 -52 95 -80 98 -44 5 -126 -41
-160 -89 -12 -18 -9 -25 41 -79 72 -78 155 -196 168 -240 9 -28 8 -44 -5 -73
-22 -54 -44 -48 -93 26 -115 173 -476 513 -673 632 -78 47 -120 55 -149 26z"/>
<path d="M5430 8755 c-83 -19 -160 -49 -231 -91 -92 -55 -89 -45 -68 -228 10
-87 20 -160 22 -162 2 -2 23 62 47 141 41 138 61 178 74 156 3 -5 10 -49 15
-98 5 -48 12 -96 16 -105 9 -23 40 -32 65 -18 27 14 91 96 131 167 37 68 77
113 97 113 26 0 7 -70 -57 -209 -34 -74 -64 -145 -67 -160 -2 -14 4 -74 14
-134 l18 -107 -268 -241 c-252 -228 -268 -244 -273 -283 -7 -47 -3 -155 6
-159 9 -3 851 750 877 785 42 58 24 187 -53 381 -13 32 78 22 210 -24 69 -24
145 -43 185 -46 l68 -6 -45 -133 -45 -134 -246 -222 c-136 -122 -249 -223
-252 -225 -5 -4 20 -23 31 -23 4 0 97 84 209 186 194 178 203 185 221 168 10
-9 19 -18 19 -20 0 -2 -186 -166 -412 -366 -227 -199 -425 -374 -440 -389 -34
-33 -29 -54 23 -105 l38 -37 -117 -39 c-64 -22 -198 -79 -297 -127 -266 -131
-435 -250 -435 -307 0 -35 -40 -154 -75 -224 -71 -141 -179 -288 -445 -605
-121 -145 -326 -425 -446 -610 -126 -194 -207 -389 -239 -579 -8 -49 -15 -90
-15 -92 0 -6 -105 -33 -110 -28 -10 11 0 189 16 284 23 134 77 307 134 427 56
119 94 177 167 256 77 84 73 90 -37 57 -36 -11 -71 -20 -77 -20 -34 0 8 177
75 322 72 153 195 342 327 502 50 60 59 66 68 51 25 -46 -25 -204 -118 -368
-57 -100 -57 -117 -1 -117 41 1 47 6 147 140 48 63 130 165 183 227 109 128
110 116 -13 157 -65 23 -111 62 -97 85 11 17 83 13 192 -9 l97 -20 23 20 c35
34 83 150 90 219 12 112 50 143 309 256 144 63 295 148 295 165 0 5 -8 11 -17
15 -23 7 -73 51 -73 63 0 5 9 17 20 27 11 10 20 27 20 37 0 29 -32 148 -39
148 -4 0 -18 -12 -32 -26 -55 -59 -170 -97 -332 -109 -88 -6 -88 -6 -146 29
-68 42 -90 44 -118 14 -17 -19 -93 -158 -93 -171 0 -2 24 4 53 14 61 21 203
25 290 8 82 -17 160 -59 172 -93 8 -25 6 -31 -18 -52 -61 -52 -272 -93 -318
-60 -14 9 -43 16 -71 16 -41 0 -58 -8 -135 -59 -48 -33 -209 -155 -358 -272
-148 -116 -293 -227 -320 -245 -53 -35 -151 -62 -168 -45 -21 21 241 252 526
466 116 87 132 107 125 156 -3 20 -24 6 -203 -128 -110 -83 -236 -181 -280
-218 -95 -81 -130 -97 -208 -98 -46 0 -63 4 -79 20 l-20 21 106 213 c111 226
154 289 253 372 67 56 143 111 147 105 2 -1 13 -35 24 -74 24 -79 44 -104 70
-87 10 5 47 52 83 104 74 106 129 154 197 171 l46 11 -40 16 c-64 24 -251 21
-349 -7 -238 -67 -498 -262 -551 -412 -55 -156 -113 -218 -302 -322 -156 -87
-180 -89 -123 -12 30 41 112 121 199 193 28 24 52 47 52 51 0 6 -64 40 -75 40
-3 0 -36 -27 -74 -60 -71 -61 -138 -110 -151 -110 -4 0 -27 26 -51 58 -58 76
-180 195 -251 242 -47 31 -84 45 -205 74 -314 75 -620 121 -670 101 -13 -5 5
-13 62 -26 261 -61 425 -103 425 -109 0 -4 -10 -15 -21 -26 -18 -16 -36 -19
-118 -18 -89 1 -109 5 -270 58 -150 50 -180 57 -220 51 -59 -9 -99 -28 -152
-73 -40 -34 -159 -185 -159 -201 0 -14 254 -61 328 -61 72 0 115 13 155 48 34
30 16 -7 -49 -97 -40 -56 -63 -98 -60 -107 10 -26 28 -11 105 87 40 52 80 96
88 97 15 4 53 -25 53 -40 0 -5 -31 -55 -69 -111 -197 -294 -298 -523 -353
-799 -12 -62 -23 -114 -23 -115 -1 -3 -285 34 -330 43 -64 12 -124 36 -149 59
-32 30 -33 45 -3 45 22 0 316 -44 369 -56 23 -4 26 -2 21 15 -3 11 -10 25 -17
30 -14 12 -464 96 -472 88 -22 -22 -46 -474 -34 -638 10 -123 40 -286 58 -316
5 -7 90 -31 189 -54 l181 -41 35 26 34 26 22 -91 c22 -95 76 -211 116 -249
l24 -22 -25 77 c-13 42 -33 116 -44 163 -20 92 -18 102 26 102 19 0 23 -10 37
-88 34 -183 69 -259 178 -382 l68 -78 -42 5 c-23 3 -48 10 -54 15 -16 13 -26
-12 -27 -66 -1 -41 -1 -41 54 -60 54 -18 230 -35 230 -22 0 3 -11 34 -25 68
-33 82 -32 115 6 166 17 23 34 42 38 42 4 0 16 -66 25 -146 19 -162 58 -307
131 -488 149 -368 354 -530 754 -596 l116 -19 35 29 c19 15 34 33 32 40 -1 6
-52 120 -113 253 -61 133 -115 255 -120 272 -32 106 -30 164 31 1104 33 504
62 931 64 950 14 95 124 231 253 315 85 54 177 90 201 77 21 -11 67 -60 61
-64 -2 -2 -42 -24 -88 -48 -101 -53 -184 -127 -230 -204 l-35 -57 -78 -851
c-54 -580 -80 -905 -81 -1017 l-2 -165 79 -170 c44 -93 94 -203 113 -243 l33
-74 97 89 c120 109 226 232 259 299 l25 51 -21 159 c-11 87 -20 164 -20 170 0
7 17 15 38 18 20 4 44 9 53 12 14 4 17 -8 23 -68 4 -40 10 -101 13 -136 l6
-63 44 43 c81 78 108 140 153 343 l29 130 -31 54 -30 54 38 96 c129 327 317
602 458 671 56 27 73 30 226 39 255 15 273 24 473 251 307 348 493 622 558
819 12 36 32 87 45 113 45 88 232 295 474 521 l124 117 -84 0 -85 0 -70 -76
-70 -76 -57 27 c-34 16 -58 34 -58 43 0 48 658 637 689 617 6 -3 42 -50 80
-103 38 -54 77 -104 86 -112 16 -13 17 -12 12 15 -4 17 -20 130 -38 251 l-31
222 43 97 c37 83 45 96 63 92 88 -20 86 -20 86 0 0 29 -103 146 -192 217 -122
98 -262 168 -412 207 -106 28 -312 35 -406 14z m-3036 -2137 c22 -32 21 -75
-3 -83 -32 -10 -139 -82 -187 -127 -229 -211 -381 -638 -403 -1129 l-6 -149
-59 47 -59 47 6 180 c5 176 19 286 57 444 10 42 17 79 15 81 -2 2 -40 -17 -84
-43 -103 -59 -199 -92 -237 -79 -74 25 -85 106 -39 279 49 185 128 350 211
443 44 48 48 51 64 36 10 -9 28 -53 40 -98 40 -155 51 -187 59 -187 5 0 26 30
46 68 20 37 58 95 83 129 l47 63 68 0 c57 0 88 7 180 44 162 64 179 66 201 34z
m1086 -358 c12 -8 9 -20 -23 -77 -166 -296 -275 -648 -293 -943 -4 -61 -11
-113 -15 -116 -14 -8 -46 53 -63 120 -22 91 -62 327 -87 527 -22 174 -22 178
-4 225 36 95 169 194 325 243 98 30 137 36 160 21z"/>
<path d="M7026 8269 c-15 -11 -37 -40 -49 -62 -20 -39 -22 -55 -22 -207 1
-182 15 -256 61 -317 51 -67 128 -33 184 80 46 96 63 176 58 287 -4 112 -31
180 -88 218 -43 29 -108 30 -144 1z"/>
<path d="M9350 7633 c-2 -107 -30 -417 -40 -427 -7 -7 -77 -11 -208 -12 -276
-2 -272 -2 -272 -17 0 -7 13 -23 30 -35 45 -34 126 -155 162 -244 l33 -80 40
7 c122 20 173 26 306 32 154 6 199 2 199 -21 0 -12 -30 -57 -83 -123 -7 -10 8
-21 59 -44 77 -34 120 -71 165 -141 l30 -46 -26 -97 c-25 -91 -26 -101 -15
-188 21 -175 58 -276 112 -306 25 -14 29 -13 81 21 l54 36 -8 59 c-15 107 -42
205 -79 278 l-36 72 23 34 c38 56 63 134 63 201 0 106 -48 176 -155 223 l-50
23 -24 93 c-63 248 -138 443 -216 564 -41 65 -124 165 -137 165 -4 0 -8 -12
-8 -27z"/>
<path d="M6995 6863 c-22 -2 -54 -6 -72 -8 l-32 -6 13 -37 c8 -20 17 -56 20
-79 8 -42 25 -356 21 -361 -3 -3 -38 56 -164 275 l-82 143 -82 -62 c-108 -81
-213 -183 -243 -234 -13 -23 -34 -86 -45 -140 -42 -200 -107 -316 -334 -599
-89 -112 -181 -230 -202 -262 -52 -76 -96 -153 -92 -158 4 -3 260 19 352 31
46 6 52 11 216 182 93 98 233 250 312 340 l144 163 59 -6 c33 -3 61 -7 64 -10
5 -5 -24 -37 -266 -299 -234 -254 -373 -416 -434 -506 -27 -41 -55 -78 -62
-81 -6 -4 -58 -10 -116 -13 -138 -9 -160 -17 -217 -80 -76 -84 -153 -229 -227
-428 l-25 -68 67 0 67 0 24 75 c12 41 53 134 90 207 72 144 65 138 170 152
l53 7 -32 -43 c-64 -86 -123 -178 -117 -184 3 -4 39 4 80 17 l74 24 53 85 c74
115 216 295 540 685 415 498 537 659 579 766 26 65 181 252 291 351 39 34 70
65 70 69 0 14 -108 52 -195 69 -91 18 -247 29 -320 23z"/>
<path d="M9056 6689 c-146 -16 -174 -22 -207 -44 -98 -64 -281 -375 -399 -677
-21 -54 -41 -112 -45 -130 -6 -31 -6 -32 8 -13 8 11 62 97 121 192 204 328
306 442 421 467 22 5 44 0 80 -19 39 -19 52 -22 61 -12 23 25 194 247 194 252
0 8 -50 4 -234 -16z"/>
<path d="M9243 6403 c-177 -277 -523 -632 -748 -767 -58 -36 -60 -38 -91 -124
-17 -48 -78 -204 -134 -347 -56 -143 -119 -312 -140 -375 -121 -369 -130 -724
-34 -1370 13 -91 24 -171 24 -177 0 -24 -23 -13 -65 30 -50 52 -107 168 -170
342 -25 72 -63 168 -82 214 l-36 84 6 201 c6 215 17 315 71 661 19 121 37 252
41 290 l7 70 -54 -90 c-85 -141 -140 -225 -286 -435 -75 -107 -135 -203 -134
-214 2 -30 49 -73 148 -137 72 -47 95 -67 109 -98 18 -41 18 -58 -1 -311 -5
-74 -3 -99 20 -184 15 -53 54 -164 88 -244 217 -524 219 -669 18 -1021 -123
-215 -136 -246 -105 -258 27 -10 52 25 120 161 61 126 121 225 163 273 l19 22
79 -78 c123 -121 238 -164 375 -141 206 35 440 242 564 500 38 81 49 175 21
186 -8 3 -51 -22 -96 -56 -103 -75 -221 -134 -329 -161 -142 -36 -218 -8 -228
83 -14 125 90 230 315 318 46 18 79 36 75 40 -4 5 -40 10 -78 12 -132 7 -218
69 -264 192 -15 40 -61 274 -61 310 0 10 175 7 275 -4 167 -19 255 -63 255
-127 0 -54 39 -183 76 -254 64 -121 165 -216 262 -245 42 -13 65 -11 301 26
335 53 305 45 285 75 -9 13 -13 29 -9 35 9 14 15 14 -247 -25 -222 -34 -233
-35 -246 -18 -7 10 -12 34 -10 53 4 50 38 64 220 96 86 15 162 30 168 34 6 4
14 26 17 49 6 40 5 42 -18 37 -48 -11 -494 -86 -512 -86 -16 0 -16 2 -2 38 22
51 69 97 125 121 26 11 112 32 192 45 208 36 242 54 302 159 44 76 181 207
219 207 4 0 7 -46 7 -102 1 -235 68 -433 165 -490 31 -18 1335 -238 1410 -238
51 0 104 31 162 93 l49 55 84 -15 c95 -16 110 -10 86 36 -25 47 -51 58 -176
77 -63 9 -120 21 -126 26 -15 11 -34 108 -34 170 0 42 3 49 18 44 9 -2 118
-21 242 -41 124 -20 225 -37 226 -38 0 -1 6 -49 12 -107 12 -117 33 -189 62
-215 16 -15 33 -17 92 -13 101 7 157 36 248 127 60 61 85 95 122 171 179 365
166 832 -28 1027 -64 64 -112 81 -287 104 -197 25 -194 24 -201 54 -7 28 -64
95 -107 125 -20 15 -68 26 -176 40 -81 11 -165 20 -185 20 -76 0 -55 -38 57
-102 38 -22 80 -47 92 -54 22 -14 21 -17 -118 -227 -184 -277 -215 -330 -234
-402 -24 -86 -30 -341 -12 -485 9 -70 11 -122 5 -132 -12 -25 -55 -23 -72 5
-25 39 -48 174 -60 345 l-11 165 -295 64 c-162 34 -312 63 -332 63 -43 0 -53
-18 -38 -70 19 -67 15 -77 -46 -100 -119 -44 -179 -34 -201 32 -10 30 -9 56 2
134 9 54 12 101 7 106 -4 4 -77 23 -162 42 -85 19 -175 42 -200 51 -25 9 -90
21 -145 27 -92 11 -122 9 -378 -22 l-278 -33 -54 53 c-44 43 -59 67 -76 120
-39 118 -80 220 -90 220 -5 0 -9 -3 -9 -7 0 -5 -7 -42 -16 -83 -11 -54 -16
-130 -15 -275 l0 -199 -62 -109 -62 -109 -8 84 c-8 93 7 422 23 511 6 33 10
60 8 61 -2 2 -122 10 -268 19 l-265 16 -72 -72 -73 -71 0 74 c0 41 9 134 19
205 76 504 291 880 584 1019 139 65 142 59 27 -61 -120 -125 -173 -191 -202
-247 -42 -82 -42 -119 0 -97 11 6 66 49 123 97 165 138 239 180 247 142 2 -9
-15 -62 -37 -118 -23 -55 -41 -110 -41 -122 0 -18 4 -20 35 -15 19 3 84 29
144 58 60 28 113 50 119 48 5 -2 -31 -60 -79 -129 -99 -139 -159 -253 -185
-348 l-17 -62 28 -30 c16 -17 31 -30 35 -30 3 0 26 57 50 128 24 70 48 133 53
140 16 20 29 -12 72 -168 20 -74 39 -138 42 -142 2 -5 22 6 43 23 l38 31 -24
71 c-13 39 -24 72 -24 73 0 2 27 20 61 40 58 36 60 39 55 73 -3 20 -8 57 -12
82 l-6 45 72 33 71 33 -6 57 c-3 31 -8 73 -11 93 -5 34 -3 39 35 63 29 20 67
32 137 43 l96 16 -6 35 c-3 20 -6 44 -6 53 0 15 -7 16 -49 11 -48 -5 -49 -5
-44 20 6 32 -12 175 -32 252 -40 150 -126 314 -215 405 -42 44 -105 90 -121
90 -4 0 -29 -35 -56 -77z m244 -209 l27 -53 -46 -41 c-52 -46 -73 -95 -86
-203 -5 -37 -11 -69 -13 -71 -3 -3 -25 2 -49 10 -24 9 -79 20 -122 27 -43 6
-77 14 -76 17 19 44 211 351 240 382 l38 42 30 -29 c16 -15 41 -52 57 -81z
m2576 -1659 c129 -19 270 -53 293 -69 17 -13 15 -17 -29 -65 -45 -51 -93 -135
-99 -176 -2 -16 6 -23 39 -33 l43 -14 -24 -31 c-33 -44 -56 -118 -56 -177 0
-28 -3 -50 -6 -50 -3 0 -39 27 -80 60 -149 119 -165 124 -386 106 -81 -7 -108
-6 -108 3 0 18 90 250 121 313 51 101 102 144 174 147 11 1 64 -6 118 -14z
m-2273 -264 c0 -10 3 -32 6 -49 5 -25 0 -37 -34 -74 -21 -23 -44 -52 -50 -64
-9 -17 -35 -24 -189 -48 -252 -39 -301 -51 -405 -104 -5 -2 -8 17 -8 41 l0 46
73 40 c66 36 89 43 218 62 150 22 189 36 189 68 0 30 -24 32 -160 11 -71 -11
-131 -20 -134 -20 -3 0 -6 8 -6 19 0 16 18 21 148 41 81 13 179 28 217 35 107
19 135 19 135 -4z m2833 -273 c3 -13 11 -73 17 -134 15 -138 7 -169 -63 -237
-27 -26 -51 -46 -54 -43 -2 2 0 29 6 60 8 43 7 66 -4 103 -14 44 -13 56 6 148
12 58 28 105 37 113 25 19 49 14 55 -10z m-2933 -98 c-32 -114 -9 -101 -255
-150 -129 -26 -191 -41 -277 -66 -23 -7 -24 32 -4 81 19 45 55 62 185 85 114
21 264 66 328 99 21 10 39 18 40 17 1 -1 -7 -30 -17 -66z"/>
<path d="M10499 5171 c-60 -37 -122 -110 -187 -218 -80 -134 -146 -322 -129
-366 15 -40 43 -15 142 130 109 161 171 230 232 261 l40 21 388 -89 c214 -50
390 -88 392 -87 1 2 -5 42 -14 90 -14 73 -21 88 -38 92 -11 3 -157 25 -325 49
-209 31 -306 49 -309 58 -2 7 -21 30 -41 51 -47 47 -87 49 -151 8z"/>
<path d="M9768 5045 l-138 -20 -70 -70 c-38 -38 -70 -73 -70 -78 0 -4 3 -6 8
-4 4 3 79 17 167 32 88 14 169 30 181 35 12 5 29 30 42 65 13 32 21 59 20 59
-2 1 -65 -7 -140 -19z"/>
<path d="M9600 4794 c-91 -12 -170 -23 -177 -23 -10 -1 -103 -136 -103 -151 0
-3 83 8 184 25 147 24 190 35 208 52 13 11 43 24 68 28 80 13 82 16 52 52 -15
17 -36 33 -47 36 -11 3 -94 -6 -185 -19z"/>
<path d="M3754 4493 c-62 -198 -248 -450 -714 -967 -201 -224 -240 -271 -240
-289 0 -20 36 -45 77 -53 27 -5 39 2 114 67 258 225 599 588 752 799 18 25 18
25 12 -32 -3 -32 -17 -103 -31 -159 -21 -79 -24 -110 -18 -147 4 -26 8 -50 9
-53 0 -4 -49 -45 -110 -92 -120 -94 -217 -181 -466 -417 -90 -85 -183 -170
-206 -189 l-42 -34 42 -30 c23 -17 72 -61 109 -99 36 -37 70 -68 75 -68 4 0
78 71 163 157 193 195 416 390 649 569 2 2 -4 38 -12 81 -39 194 -46 600 -13
813 7 47 13 86 12 86 -3 4 -146 74 -151 74 -3 0 -8 -8 -11 -17z"/>
<path d="M7184 4312 c-24 -68 -34 -83 -86 -126 -33 -28 -61 -61 -65 -75 -13
-54 -55 -122 -107 -173 -53 -51 -124 -99 -303 -204 -77 -44 -99 -64 -72 -64
15 0 131 -76 271 -177 65 -47 122 -83 127 -81 5 1 149 165 320 362 l311 360
-22 24 c-26 27 -101 81 -226 159 -131 83 -116 84 -148 -5z"/>
<path d="M1645 3305 c-11 -2 -85 -12 -165 -21 l-145 -17 -79 -60 c-255 -194
-657 -570 -633 -593 2 -3 56 4 118 14 63 11 115 19 116 18 2 -1 -43 -40 -99
-86 -89 -73 -126 -95 -285 -169 -162 -77 -191 -94 -265 -160 -154 -138 -203
-185 -183 -177 47 18 207 55 280 66 44 6 172 11 283 11 l204 -1 29 29 c35 36
38 79 9 136 -11 22 -20 41 -20 44 0 2 22 1 49 -2 86 -10 396 -148 644 -287 60
-33 119 -60 132 -60 27 0 55 34 55 66 0 75 -188 179 -577 320 -101 36 -163 64
-163 72 0 8 15 28 33 45 45 42 213 152 283 184 55 25 60 25 123 14 110 -20
314 -110 444 -196 l28 -18 -8 29 c-16 58 -8 127 22 182 32 58 250 279 304 306
27 14 47 17 96 11 96 -10 185 36 185 96 0 23 -10 34 -59 64 -84 51 -176 91
-267 116 -67 18 -110 22 -274 25 -107 1 -204 1 -215 -1z"/>
<path d="M7622 3150 c-120 -43 -234 -136 -278 -226 -22 -46 -26 -64 -22 -123
4 -71 6 -77 103 -210 59 -81 -4 -229 -93 -219 -23 2 -34 17 -71 87 -28 54 -67
109 -111 154 l-68 72 -72 -78 c-40 -42 -78 -77 -86 -77 -8 0 -87 37 -176 81
-208 104 -326 156 -374 164 -38 7 -37 5 83 -109 128 -122 264 -274 347 -388
28 -38 53 -68 57 -68 4 0 35 30 69 68 l61 67 -3 -195 c-3 -194 -2 -195 24
-250 75 -154 148 -564 136 -768 -1 -34 -1 -62 2 -61 3 0 42 47 88 104 l83 103
2 179 c2 213 0 206 151 368 l99 105 -6 68 c-4 37 -14 92 -23 121 l-16 54 45
46 c205 213 290 599 194 879 -22 64 -24 67 -57 69 -19 2 -59 -6 -88 -17z"/>
<path d="M9410 3046 c-121 -19 -135 -23 -135 -41 0 -17 13 -23 96 -39 l96 -20
207 31 c198 29 266 49 251 73 -8 13 -80 13 -181 0 -67 -8 -87 -8 -117 5 -44
18 -49 18 -217 -9z"/>
<path d="M2623 3005 c-3 -10 3 -36 15 -60 l20 -42 -42 -20 c-48 -24 -196 -138
-341 -262 -132 -115 -179 -152 -244 -194 l-53 -35 39 -20 c62 -32 192 -133
264 -205 37 -37 69 -67 73 -67 10 0 449 393 564 506 l107 105 -75 70 c-82 78
-218 183 -280 218 -36 20 -41 21 -47 6z"/>
<path d="M5315 2574 c-96 -20 -203 -74 -252 -127 -60 -65 -83 -137 -83 -255 0
-53 5 -117 10 -142 34 -153 45 -161 103 -70 40 64 55 73 65 38 19 -74 170
-327 209 -351 11 -7 5 234 -8 323 -6 41 -22 121 -35 177 -39 167 -30 229 52
356 49 76 51 74 -61 51z"/>
<path d="M5527 2554 c-17 -9 -38 -36 -53 -67 -32 -69 -34 -191 -4 -269 19 -51
83 -128 106 -128 6 0 14 25 17 60 7 68 28 114 54 124 9 4 47 2 83 -4 95 -17
110 -8 134 74 l19 67 -24 25 c-39 42 -110 83 -174 103 -95 29 -127 32 -158 15z"/>
<path d="M8019 2377 c-52 -35 -129 -137 -241 -321 -88 -144 -120 -187 -220
-292 -65 -68 -120 -135 -124 -149 -4 -18 2 -38 26 -75 18 -28 36 -49 41 -48 4
2 154 194 334 428 311 406 325 425 303 435 -13 6 -34 18 -48 28 -31 22 -30 22
-71 -6z"/>
<path d="M5970 2251 c-24 -25 -42 -55 -46 -78 -7 -40 0 -50 65 -85 44 -24 48
-43 23 -114 -26 -75 -27 -88 -6 -108 32 -33 184 -12 262 36 23 14 32 27 32 47
0 39 -64 141 -155 244 -99 112 -118 119 -175 58z"/>
<path d="M2970 1901 c-162 -50 -350 -269 -350 -408 0 -13 9 -32 21 -44 17 -17
18 -23 8 -36 -21 -25 -53 -32 -97 -22 -31 7 -53 5 -88 -7 l-46 -15 -63 60
c-88 85 -111 83 -106 -10 3 -53 -17 -117 -40 -129 -14 -8 -35 -8 -75 0 -64 13
-114 0 -114 -30 0 -9 22 -57 50 -106 27 -49 50 -95 50 -101 0 -17 3 -16 79 7
93 29 97 24 56 -62 -38 -80 -42 -112 -21 -179 8 -24 20 -70 26 -101 l11 -57
61 40 c81 52 97 51 60 -3 -44 -64 -64 -107 -79 -168 -18 -67 -17 -54 -2 -178
l13 -103 59 58 c33 32 57 50 54 41 -3 -9 -35 -70 -71 -135 -74 -131 -87 -176
-62 -201 27 -28 65 -3 148 95 96 114 102 135 95 310 -5 124 -4 134 16 159 23
29 90 63 125 64 33 0 44 -40 40 -147 l-3 -93 27 28 c15 15 157 168 316 341
l289 314 -8 46 c-15 79 -19 91 -34 91 -29 0 -140 -118 -236 -251 -94 -131
-205 -249 -233 -249 -9 0 -15 26 -19 88 -4 48 -14 112 -22 142 -8 30 -13 55
-12 56 1 1 20 16 42 34 76 59 205 194 245 256 107 164 115 325 24 506 -55 110
-67 119 -134 99z"/>
<path d="M6198 1702 c-62 -60 -133 -123 -157 -140 -85 -61 -167 -38 -329 91
-48 38 -93 74 -99 79 -9 7 -34 -9 -88 -57 -41 -37 -75 -70 -75 -74 1 -12 156
-116 229 -153 62 -31 135 -53 249 -74 18 -4 22 -11 22 -43 0 -84 84 -103 193
-44 81 44 152 116 189 191 29 59 33 76 33 152 0 83 -24 180 -45 180 -5 0 -60
-49 -122 -108z"/>
<path d="M690 1439 c-120 -23 -250 -127 -284 -225 -19 -57 -20 -96 -4 -231
l12 -102 72 6 c82 7 81 8 104 -85 12 -47 68 -115 119 -145 28 -16 32 -17 37
-2 9 23 -4 94 -36 203 -41 136 -60 233 -60 305 l0 62 71 85 c39 47 79 97 90
113 l20 27 -48 -1 c-26 -1 -68 -5 -93 -10z"/>
<path d="M930 1371 c-104 -80 -116 -121 -83 -293 20 -103 16 -101 131 -46 50
23 62 33 57 46 -14 37 -21 99 -14 125 10 36 32 53 89 67 128 32 124 30 105 50
-21 23 -151 89 -190 95 -25 4 -41 -3 -95 -44z"/>
<path d="M1353 1146 c-44 -37 -51 -80 -25 -172 24 -88 21 -108 -36 -221 -23
-46 -42 -89 -42 -98 0 -42 152 15 208 79 35 40 34 37 37 112 1 31 11 67 25 91
l22 41 -31 45 c-17 25 -52 69 -79 98 l-48 51 -31 -26z"/>
<path d="M793 624 c-8 -3 -13 -24 -13 -49 0 -43 0 -43 68 -81 108 -60 281
-177 360 -244 l74 -63 59 6 c113 10 212 84 268 200 27 56 56 167 43 167 -3 0
-52 -32 -109 -71 -93 -63 -107 -70 -146 -67 -38 3 -42 5 -45 33 -6 53 -19 52
-75 -2 l-52 -52 -126 82 c-177 116 -268 158 -306 141z"/>
</g>
</svg>
